<svg width="512" height="512" viewBox="0 0 512 512" fill="none" xmlns="http://www.w3.org/2000/svg">
<g opacity="0.4" filter="url(#filter0_f_83_146)">
<circle cx="256" cy="286" r="185" fill="url(#paint0_linear_83_146)"/>
</g>
<path d="M256 52C264.174 52 272.235 52.4833 280.157 53.418C278.112 59.2347 277 65.4894 277 72C277 102.692 301.69 127.616 332.292 127.995C337.65 152.541 359.099 171.067 385.034 171.962C386.068 201.981 410.729 226 441 226C446.715 226 452.233 225.142 457.431 223.549C459.12 234.116 460 244.955 460 256C460 368.666 368.666 460 256 460C143.334 460 52 368.666 52 256C52 143.334 143.334 52 256 52Z" fill="url(#paint1_linear_83_146)" stroke="white" stroke-width="4"/>
<circle cx="256" cy="256" r="125" fill="url(#paint2_linear_83_146)"/>
<circle cx="256" cy="256" r="115" fill="url(#paint3_linear_83_146)"/>
<defs>
<filter id="filter0_f_83_146" x="39" y="69" width="434" height="434" filterUnits="userSpaceOnUse" color-interpolation-filters="sRGB">
<feFlood flood-opacity="0" result="BackgroundImageFix"/>
<feBlend mode="normal" in="SourceGraphic" in2="BackgroundImageFix" result="shape"/>
<feGaussianBlur stdDeviation="16" result="effect1_foregroundBlur_83_146"/>
</filter>
<linearGradient id="paint0_linear_83_146" x1="256" y1="101" x2="256" y2="471" gradientUnits="userSpaceOnUse">
<stop stop-opacity="0"/>
<stop offset="1"/>
</linearGradient>
<linearGradient id="paint1_linear_83_146" x1="256" y1="50" x2="256" y2="462" gradientUnits="userSpaceOnUse">
<stop stop-color="white"/>
<stop offset="1" stop-color="#EEEEEE"/>
</linearGradient>
<linearGradient id="paint2_linear_83_146" x1="256" y1="131" x2="256" y2="381" gradientUnits="userSpaceOnUse">
<stop stop-color="#EEEEEE"/>
<stop offset="1" stop-color="white"/>
</linearGradient>
<linearGradient id="paint3_linear_83_146" x1="256" y1="141" x2="256" y2="371" gradientUnits="userSpaceOnUse">
<stop stop-color="white"/>
<stop offset="1" stop-color="#EEEEEE"/>
</linearGradient>
</defs>
</svg>
